<?xml version="1.0"?>
<svg xmlns:rdf="http://www.w3.org/1999/02/22-rdf-syntax-ns#" xmlns="http://www.w3.org/2000/svg" xmlns:cc="http://web.resource.org/cc/" xmlns:xlink="http://www.w3.org/1999/xlink" xmlns:dc="http://purl.org/dc/elements/1.1/" xmlns:svg="http://www.w3.org/2000/svg" id="Layer_1" xml:space="preserve" overflow="visible" viewBox="0 0 175.035 191.583" version="1.1" enable-background="new 0 0 175.035 191.583">
<g clip-rule="evenodd" fill-rule="evenodd">
	<path d="m15.195 29.343c-4.614-1.93-8.233-7.197-10.08-13.44-1.48-5.005-2.008-9.227 0.96-12.96 5.505-0.596 9.79 9.347 11.04 15.84 0.959 4.982 1.607 8.909-1.92 10.56z" fill="#fff"/>
	<path d="m72.794 38.943c-4.397-0.828-3.723-11.23 0.96-11.04 0.232 2.152-1.696 2.143-1.92 3.84-0.438 3.158 1.399 4.042 0.96 7.2z"/>
	<path d="m71.354 40.863c3.651 0.029 3.792 3.567 4.32 6.72-3.7 0.021-4.231-3.128-4.32-6.72z"/>
	<path d="m83.834 41.343c0.645 0.315 0.894 1.026 0.96 1.92-0.844-0.116-1.093-0.826-0.96-1.92z" fill="#fff"/>
	<path d="m115.04 43.263c1.99-0.11-4.294 4.128-5.76 4.32-1.43 0.188-2.855-0.095-3.84-0.96 0.24-4.08 7.33-1.301 9.6-3.36z" fill="#fff"/>
	<path d="m103.51 48.063c-2.886 0.327-3.692-1.427-6.72-0.96-0.415-0.662 6.85-1.231 6.72 0.96z" fill="#fff"/>
	<path d="m95.834 47.103c-1.053 1.466-3.074-0.554 0 0z" fill="#fff"/>
	<path d="m25.275 49.023c1.665-0.385 1.845 0.715 3.36 0.48 0.213 1.546 0.919 2.601 0.96 4.32h-2.88c-0.632-1.448-1.55-2.61-1.44-4.8z" fill="#fff"/>
	<path d="m78.555 50.463c-1.544 3.096-4.275 5.005-7.68 6.24 1.217-3.104 4.893-3.748 6.24-6.72 0.775-0.135 0.826 0.454 1.44 0.48z"/>
	<path d="m69.915 61.023c1.507 0.148-4.224 0.721-3.36 3.36-1.625 0.135-2.756 0.764-4.8 0.48 2.064-2.095 3.731-4.588 6.72-5.76-0.134 1.254-0.163 2.402 1.44 1.92z" fill="#fff"/>
	<path d="m73.754 29.823c2.012-1.241 1.484 1.3 3.84 0.96 1.774-0.146 1.8-2.04 2.88-2.88-1.763-1.157-2.88-0.841-4.8 0 1.323-6.041 9.812-2.23 12.96-0.48 1.113 1.926 1.737 4.343 2.4 6.72 2.542 1.974 2.713 6.53 1.92 10.56 2.354 1.169 7.297-1.119 10.08 0.48 3.558-3.482 11.282-2.798 16.32-4.8 1.792 1.47 5.484 1.879 7.68 0.48 3.344 0.816 5.167 3.153 8.64 3.84 1.21-1.286-3.852-1.124-1.92-3.36 12.026 1.414 16.476 10.404 24.96 15.36-0.347 2.427 0.528 3.631 1.44 4.8 2.582-0.458 5.483-0.596 8.64-0.48-1.872-1.008-5.703-0.057-5.28-3.36 4.152-0.705 7.79-1.352 11.04 0.48-0.984 1.482 1.145 3.591-1.92 3.36 0.123 0.997 2.109 0.131 2.4 0.96-1.552 1.994-0.486 1.762-0.96 3.84-4.119 0.438-5.569-1.791-9.601-1.44-1.298 0.942 0.293 4.773-0.96 5.76-2.311 0.231-2.281-1.878-2.88-3.36-4.742-4.056-7.538-7.837-13.92-11.04-2.304-1.156-5.127-2.999-7.2-3.36-1.361-0.237-2.851 0.615-4.319 0.48-3.148-0.29-5.658-2.532-9.12-2.4-2.07 0.65-0.866 4.574-1.92 6.24-1.168 0.912-4.016 0.144-5.28 0.96-4.84 4.119 1.242 6.685 2.4 12.48 0.166 0.832-0.217 2.31 0 2.88 1.39 3.651 5.806 7.99 8.64 11.52 1.236 1.54 3.275 3.327 3.84 5.28 0.62 2.142 0.416 4.418 0.96 6.72 2.607 11.04 8.345 24.623 12 34.56 3.335 1.625 7.751 2.17 7.68 7.2-1.066 1.111-1.871-0.163-3.359 0 0.215 3.315 4.932 1.567 6.72 0.96 4.104 6.777 1.93 19.83 9.6 23.04v5.28c1.686 3.274 5.354 4.566 7.2 7.68 0.48 5.326 1.005 12.164-1.439 15.84h-3.84c-2.334-5.124-4.131-10.234-6.721-14.88-5.063-9.082-10.348-18.228-16.8-26.399-1.599-2.025-3.45-4.099-5.28-5.761-2.068-1.879-5.554-3.646-6.72-6.239-4.481-9.97-12.689-18.775-18.72-28.32-2.164-3.425-2.919-5.42-7.2-6.72-7.634 4.365-11.921 12.078-21.6 14.399-5.375 17.025-15.107 29.693-22.08 45.12-0.567 0.553-1.697 0.543-2.88 0.48-0.81 5.412-1.027 12.479-6.24 12-2.298-0.212-3.808-3.036-4.8-5.761-2.63-2.704-7.505-3.471-9.12-7.199-1.491-3.442-0.09-7.98 0-12.96 8.774-1.67 10.436 7.756 12 14.88 2.292-2.267-1.639-8.349-0.96-10.561 3.528-0.008 4.026 3.015 6.72 3.84 0.543-4.067-4.39-6.806-6.24-10.079 4.153-1.043 6.346 3.842 9.12 5.76-0.06-1.98 0.834-3.006 0.48-5.28-0.892-1.828-3.534-1.906-4.32-3.84 1.958-4.905 5.53-8.859 7.68-13.92 2.07-4.874 3.8-9.984 6.72-14.4 2.43-0.51 2.421 1.419 3.84 1.92 3.182-4.146 3.054-9.472 5.76-13.439 0.792-1.162 2.393-2.197 3.36-3.36 2.859-3.436 5.688-7.156 9.121-10.56-1.616-1.104-4.767-0.674-5.28-2.88-0.857-1.659 0.033-3.151 1.44-3.84-3.053-4.252-4.113-7.288-9.6-9.6-3.026-1.275-4.427-2.084-7.68 0-0.616 0.395-1.426 2.031-2.4 2.4-1.961 0.743-4.179 0.1-5.76 0.48-2.409 0.58-5.152 2.027-7.68 2.88-4.206 1.419-7.635 2.451-11.52 3.84-3.245-2.995-7.033-5.447-8.64-10.08-4.949-3.852-5.49-12.11-14.4-12-0.804-4.316-4.001-6.238-5.28-10.08 0.431-1.009 1.331-1.549 1.92-2.4-1.718-4.042-2.635-8.885-4.32-12.96-0.435-1.755-3.195-1.642-4.8-2.88-6.34-4.891-13.872-22.42-8.64-30.24 0.99-1.48 3.976-3.307 6.72-2.88 7.752 1.207 12.71 13.146 12.48 23.52-0.07 3.181-1.863 6.3-1.92 9.12-0.096 4.759 3.131 8.354 3.84 12.48 2.393 0.807 5.102 1.299 7.2 2.4 1.958 3.965 1.737 7.634 3.84 10.56 3.854 5.362 11.453 7.251 15.36 12.48-0.272 2.128-1.555 3.245-1.44 5.76 3.768 0.083 8.453-3.064 13.44-3.36-0.382-3.138-3.501-3.539-7.2-3.36-0.328-2.821 2.82-3.59 4.32-4.8 2.831-2.283 5.411-5.344 8.64-7.2 2.376 1.722 4.65-1.029 7.68 0.48 0.219 1.5-1.026 1.534-2.4 1.44 3.972 1.564 6.622-2.333 9.12-3.84 0.411-1.79-1.72-2.641-1.92-4.32-0.011-0.09 0.903-2.079 0.96-1.92-0.836-2.349-4.298-3.006-2.88-6.24-4.043-3.197-5.449-9.142-3.837-13.437zm-56.639-11.04c-1.25-6.493-5.535-16.436-11.04-15.84-2.968 3.733-2.44 7.955-0.96 12.96 1.847 6.243 5.466 11.51 10.08 13.44 3.527-1.651 2.879-5.578 1.92-10.56zm67.679 24.48c-0.066-0.894-0.315-1.604-0.96-1.92-0.133 1.094 0.116 1.804 0.96 1.92zm20.646 3.36c0.984 0.865 2.41 1.147 3.84 0.96 1.466-0.192 7.75-4.43 5.76-4.32-2.27 2.059-9.36-0.72-9.6 3.36zm-8.646 0.48c3.027-0.467 3.834 1.287 6.72 0.96 0.13-2.191-7.135-1.622-6.716-0.96zm-0.96 0c-3.074-0.554-1.053 1.466 0 0zm-69.119 6.72h2.88c-0.041-1.72-0.747-2.774-0.96-4.32-1.515 0.235-1.695-0.865-3.36-0.48-0.11 2.19 0.808 3.352 1.44 4.8zm41.76 5.28c-2.989 1.171-4.655 3.665-6.72 5.76 2.043 0.284 3.174-0.345 4.8-0.48-0.864-2.639 4.867-3.212 3.36-3.36-1.603 0.482-1.574-0.666-1.44-1.92z"/>
</g>
<metadata><rdf:RDF><cc:Work><dc:format>image/svg+xml</dc:format><dc:type rdf:resource="http://purl.org/dc/dcmitype/StillImage"/><cc:license rdf:resource="http://creativecommons.org/licenses/publicdomain/"/><dc:publisher><cc:Agent rdf:about="http://openclipart.org/"><dc:title>Openclipart</dc:title></cc:Agent></dc:publisher><dc:title>tennis player</dc:title><dc:date>2006-10-07T15:38:00</dc:date><dc:description>a simple black and white drawing of a tennis player</dc:description><dc:source>http://openclipart.org/detail/424/tennis-player-by-johnny_automatic</dc:source><dc:creator><cc:Agent><dc:title>johnny_automatic</dc:title></cc:Agent></dc:creator><dc:subject><rdf:Bag><rdf:li>athletics</rdf:li><rdf:li>black</rdf:li><rdf:li>black &amp; white</rdf:li><rdf:li>clip art</rdf:li><rdf:li>clipart</rdf:li><rdf:li>no contour</rdf:li><rdf:li>player</rdf:li><rdf:li>racquet</rdf:li><rdf:li>remix problem</rdf:li><rdf:li>silhouette</rdf:li><rdf:li>sports</rdf:li><rdf:li>stencil</rdf:li><rdf:li>tennis</rdf:li><rdf:li>vintage</rdf:li></rdf:Bag></dc:subject></cc:Work><cc:License rdf:about="http://creativecommons.org/licenses/publicdomain/"><cc:permits rdf:resource="http://creativecommons.org/ns#Reproduction"/><cc:permits rdf:resource="http://creativecommons.org/ns#Distribution"/><cc:permits rdf:resource="http://creativecommons.org/ns#DerivativeWorks"/></cc:License></rdf:RDF></metadata></svg>
